<mxfile host="app.diagrams.net" modified="2023-08-09T10:09:17.748Z" agent="Mozilla/5.0 (Windows NT 10.0; Win64; x64) AppleWebKit/537.36 (KHTML, like Gecko) Chrome/115.0.0.0 Safari/537.36" version="21.6.7" etag="Ew4hWtrCcLfXQLzG9w0w" type="github">
  <diagram name="Page-1" id="_Uic_pa6e6oVSvFmblyU">
    <mxGraphModel>
      <root>
        <mxCell id="0" />
        <mxCell id="1" parent="0" />
      </root>
    </mxGraphModel>
  </diagram>
</mxfile>
